<svg width="16" height="23" viewBox="0 0 16 23" fill="none" xmlns="http://www.w3.org/2000/svg">
<path d="M7.2 0C7.59274 0 7.91937 0.283 7.98711 0.656199L8 0.8V5.6C8 7.53492 6.62614 9.14896 4.8007 9.51984L4.8 21.6C4.8 22.0418 4.44183 22.4 4 22.4C3.60726 22.4 3.28063 22.117 3.21289 21.7438L3.2 21.6L3.20092 9.52017C1.46163 9.16754 0.131945 7.68642 0.00925217 5.87422L0 5.6V0.8C0 0.358172 0.358172 0 0.8 0C1.19274 0 1.51937 0.283 1.58711 0.656199L1.6 0.8V5.6C1.6 6.64515 2.26807 7.53426 3.20047 7.8636L3.2 0.8C3.2 0.358172 3.55817 0 4 0C4.39274 0 4.71937 0.283 4.78711 0.656199L4.8 0.8L4.80112 7.86304C5.66103 7.55862 6.29577 6.77797 6.38834 5.8381L6.4 5.6V0.8C6.4 0.358172 6.75817 0 7.2 0ZM15.2 0C15.5927 0 15.9194 0.283 15.9871 0.656199L16 0.8V21.6C16 22.0418 15.6418 22.4 15.2 22.4C14.8073 22.4 14.4806 22.117 14.4129 21.7438L14.4 21.6V12.8H12C11.6073 12.8 11.2806 12.517 11.2129 12.1438L11.2 12V4C11.2 1.79086 12.9909 0 15.2 0ZM14.4 11.2V1.73656C13.5396 2.04069 12.9043 2.82157 12.8117 3.7618L12.8 4V11.2H14.4V1.73656V11.2Z" fill="black"/>
</svg>
